<svg width="934" height="282" viewBox="0 0 934 282" fill="none" xmlns="http://www.w3.org/2000/svg">
<g clip-path="url(#clip0_2_47)">
<path fill-rule="evenodd" clip-rule="evenodd" d="M673.342 37.3748H695.776C708.064 37.3748 718.026 47.3365 718.026 59.6248C718.026 59.6249 718.026 59.6249 718.026 59.625H718.118C730.407 59.625 740.368 49.6633 740.368 37.375C740.368 25.0867 730.407 15.125 718.118 15.125H695.592C683.304 15.125 673.342 25.0866 673.342 37.3748Z" fill="url(#paint0_radial_2_47)"/>
<path fill-rule="evenodd" clip-rule="evenodd" d="M673.342 37.3748C673.342 37.3749 673.342 37.3749 673.342 37.375C673.342 49.6633 683.304 59.625 695.592 59.625H718.026C718.026 71.9132 708.065 81.8748 695.776 81.8748H673.25C660.962 81.8748 651 71.9132 651 59.6248C651 47.3365 660.962 37.3748 673.25 37.3748H673.342Z" fill="url(#paint1_radial_2_47)"/>
</g>
<path fill-rule="evenodd" clip-rule="evenodd" d="M809.63 60.0905L818.698 77.4135H831.544L816.515 52.3077L830.704 35.5705H817.942L807.866 48.1234V18.8333H796.699V77.4135H807.866V62.35L809.63 60.0905ZM789.999 71.2207C790.838 69.4912 791.258 67.3433 791.258 64.7769C791.258 60.9274 790.39 57.8868 788.655 55.6551C786.92 53.3677 783.869 51.8614 779.503 51.1361C777.656 50.8572 776.285 50.4666 775.389 49.9645C774.493 49.4066 774.046 48.6255 774.046 47.6213C774.046 46.3381 774.493 45.4455 775.389 44.9433C776.285 44.4412 777.768 44.1902 779.839 44.1902C782.134 44.1902 784.037 44.3575 785.549 44.6923C787.116 45.027 788.543 45.3897 789.831 45.7802V36.24C789.439 36.1284 788.851 35.9889 788.067 35.8216C787.34 35.6542 786.528 35.5147 785.633 35.4031C784.737 35.2358 783.813 35.0963 782.862 34.9847C781.91 34.8731 781.015 34.8173 780.175 34.8173C774.241 34.8173 769.847 35.8216 766.993 37.83C764.138 39.8385 762.711 43.1859 762.711 47.8724C762.711 51.443 763.578 54.2883 765.313 56.4083C767.105 58.5284 770.155 59.9789 774.465 60.76C776.592 61.1505 777.992 61.6805 778.664 62.35C779.391 63.0195 779.755 63.9958 779.755 65.279C779.755 66.7296 779.083 67.678 777.74 68.1243C776.453 68.5707 774.829 68.7938 772.87 68.7938C770.911 68.7938 769.036 68.6265 767.245 68.2917C765.453 67.9012 763.998 67.5664 762.878 67.2875V76.8277C763.438 76.9951 764.138 77.1624 764.978 77.3298C765.873 77.4414 766.825 77.553 767.832 77.6645C768.896 77.8319 769.987 77.9435 771.107 77.9993C772.226 78.1109 773.318 78.1667 774.381 78.1667C776.9 78.1667 779.195 77.9435 781.266 77.4972C783.338 77.0508 785.101 76.3256 786.556 75.3213C788.067 74.2613 789.215 72.8944 789.999 71.2207ZM834.912 77.4135V35.5705H846.08V77.4135H834.912ZM867.297 77.5809C868.752 77.4135 869.788 77.274 870.403 77.1624V67.8733C870.179 67.9291 869.76 68.0128 869.144 68.1243C868.584 68.1801 867.996 68.208 867.381 68.208C866.317 68.208 865.617 67.957 865.282 67.4549C864.946 66.8969 864.778 65.9485 864.778 64.6095V18.8333H853.611V65.028C853.611 69.3796 854.254 72.6155 855.542 74.7355C856.885 76.7998 859.292 77.8319 862.763 77.8319C864.386 77.8319 865.897 77.7482 867.297 77.5809ZM891.397 77.1624C890.782 77.274 889.746 77.4135 888.291 77.5809C886.891 77.7482 885.38 77.8319 883.757 77.8319C880.286 77.8319 877.879 76.7998 876.536 74.7355C875.248 72.6155 874.605 69.3796 874.605 65.028V18.8333H885.772V64.6095C885.772 65.9485 885.94 66.8969 886.276 67.4549C886.612 67.957 887.311 68.208 888.375 68.208C888.99 68.208 889.578 68.1801 890.138 68.1243C890.754 68.0128 891.174 67.9291 891.397 67.8733V77.1624ZM895.515 46.7844C894.731 49.6855 894.339 53.284 894.339 57.5799C894.339 61.5968 894.619 64.9443 895.179 67.6222C895.739 70.2444 896.606 72.3365 897.782 73.8987C898.957 75.4608 900.413 76.5766 902.148 77.2461C903.883 77.8598 905.926 78.1667 908.277 78.1667C910.46 78.1667 912.42 77.804 914.155 77.0787C915.89 76.2977 917.429 75.2655 918.773 73.9824L919.612 77.4135H928.68V18.8333H917.513V34.901H916.086C915.582 34.8452 915.05 34.8173 914.491 34.8173C910.964 34.8173 907.914 35.2079 905.339 35.9889C902.82 36.7142 900.749 37.9695 899.125 39.7548C897.502 41.5401 896.299 43.8833 895.515 46.7844ZM913.735 68.1243C913.007 68.4591 912.168 68.6265 911.216 68.6265C910.209 68.6265 909.341 68.487 908.613 68.208C907.942 67.9291 907.382 67.427 906.934 66.7017C906.486 65.9206 906.15 64.8606 905.926 63.5216C905.758 62.1826 905.674 60.4531 905.674 58.3331C905.674 55.432 905.814 53.0888 906.094 51.3035C906.374 49.4624 906.822 48.0397 907.438 47.0355C908.109 45.9755 908.949 45.2781 909.957 44.9433C911.02 44.5528 912.28 44.3575 913.735 44.3575C914.351 44.3575 914.966 44.3854 915.582 44.4412C916.254 44.497 916.898 44.5528 917.513 44.6086V62.35C917.513 63.0753 917.345 63.8285 917.01 64.6095C916.73 65.3348 916.31 66.0043 915.75 66.618C915.19 67.2317 914.519 67.7338 913.735 68.1243ZM840.52 30.8283C843.844 30.8283 846.539 28.1431 846.539 24.8308C846.539 21.5185 843.844 18.8333 840.52 18.8333C837.195 18.8333 834.5 21.5185 834.5 24.8308C834.5 28.1431 837.195 30.8283 840.52 30.8283Z" fill="#101831"/>
<path d="M131.944 193.152V258H116.6V193.152H100.472V179.6H148.072V193.152H131.944ZM152.027 258V179.6H166.923V204.8C168.491 203.605 170.246 202.672 172.187 202C174.129 201.328 176.257 200.992 178.571 200.992C182.454 200.992 185.553 201.44 187.867 202.336C190.257 203.232 192.086 204.613 193.355 206.48C194.699 208.347 195.595 210.661 196.043 213.424C196.491 216.187 196.715 219.472 196.715 223.28V258H181.819V222.944C181.819 219.211 181.259 216.784 180.139 215.664C179.094 214.469 177.563 213.872 175.547 213.872C172.71 213.872 170.582 214.693 169.163 216.336C167.819 217.979 167.073 219.771 166.923 221.712V258H152.027ZM219.722 235.488C219.946 239.595 220.692 242.432 221.962 244C223.306 245.493 225.658 246.24 229.018 246.24C232.154 246.24 235.103 246.053 237.866 245.68C240.703 245.307 242.943 244.933 244.586 244.56V257.104C243.69 257.328 242.57 257.589 241.226 257.888C239.882 258.112 238.463 258.299 236.97 258.448C235.476 258.597 234.02 258.709 232.602 258.784C231.258 258.933 230.063 259.008 229.018 259.008C224.986 259.008 221.439 258.672 218.378 258C215.316 257.328 212.74 255.947 210.65 253.856C208.634 251.765 207.103 248.853 206.058 245.12C205.087 241.312 204.602 236.272 204.602 230C204.602 224.848 205.087 220.443 206.058 216.784C207.103 213.051 208.596 210.027 210.538 207.712C212.554 205.397 214.98 203.717 217.818 202.672C220.655 201.552 223.903 200.992 227.562 200.992C231.818 200.992 235.29 201.552 237.978 202.672C240.74 203.792 242.906 205.435 244.474 207.6C246.042 209.691 247.124 212.304 247.722 215.44C248.394 218.576 248.73 222.123 248.73 226.08V235.488H219.722ZM227.338 213.312C225.023 213.312 223.268 214.133 222.074 215.776C220.954 217.419 220.207 220.331 219.834 224.512H234.394V221.6C234.394 218.837 233.834 216.784 232.714 215.44C231.594 214.021 229.802 213.312 227.338 213.312ZM256.598 258V202H268.694L269.59 206.144C271.233 204.576 273.1 203.344 275.19 202.448C277.281 201.477 279.558 200.992 282.022 200.992C285.606 200.992 288.481 201.477 290.646 202.448C292.812 203.419 294.529 204.837 295.798 206.704C297.516 204.987 299.532 203.605 301.846 202.56C304.161 201.515 306.737 200.992 309.574 200.992C313.308 200.992 316.294 201.477 318.534 202.448C320.774 203.344 322.492 204.725 323.686 206.592C324.881 208.459 325.665 210.773 326.038 213.536C326.412 216.299 326.598 219.547 326.598 223.28V258H311.702V222.944C311.702 219.211 311.292 216.784 310.47 215.664C309.649 214.469 308.342 213.872 306.55 213.872C303.937 213.872 302.07 214.693 300.95 216.336C299.83 217.979 299.196 219.771 299.046 221.712V258H284.15V222.944C284.15 219.211 283.74 216.784 282.918 215.664C282.097 214.469 280.79 213.872 278.998 213.872C276.31 213.872 274.369 214.768 273.174 216.56C272.054 218.352 271.494 220.256 271.494 222.272V258H256.598ZM349.558 235.488C349.782 239.595 350.529 242.432 351.798 244C353.142 245.493 355.494 246.24 358.854 246.24C361.99 246.24 364.94 246.053 367.702 245.68C370.54 245.307 372.78 244.933 374.422 244.56V257.104C373.526 257.328 372.406 257.589 371.062 257.888C369.718 258.112 368.3 258.299 366.806 258.448C365.313 258.597 363.857 258.709 362.438 258.784C361.094 258.933 359.9 259.008 358.854 259.008C354.822 259.008 351.276 258.672 348.214 258C345.153 257.328 342.577 255.947 340.486 253.856C338.47 251.765 336.94 248.853 335.894 245.12C334.924 241.312 334.438 236.272 334.438 230C334.438 224.848 334.924 220.443 335.894 216.784C336.94 213.051 338.433 210.027 340.374 207.712C342.39 205.397 344.817 203.717 347.654 202.672C350.492 201.552 353.74 200.992 357.398 200.992C361.654 200.992 365.126 201.552 367.814 202.672C370.577 203.792 372.742 205.435 374.31 207.6C375.878 209.691 376.961 212.304 377.558 215.44C378.23 218.576 378.566 222.123 378.566 226.08V235.488H349.558ZM357.174 213.312C354.86 213.312 353.105 214.133 351.91 215.776C350.79 217.419 350.044 220.331 349.67 224.512H364.23V221.6C364.23 218.837 363.67 216.784 362.55 215.44C361.43 214.021 359.638 213.312 357.174 213.312ZM459.602 221.488C459.602 228.208 457.511 233.099 453.33 236.16C449.149 239.147 442.802 240.64 434.29 240.64C431.901 240.64 429.698 240.528 427.682 240.304C427.234 241.2 427.01 242.283 427.01 243.552C427.01 244 427.085 244.597 427.234 245.344C429.623 245.12 432.05 244.971 434.514 244.896C436.978 244.747 438.957 244.672 440.45 244.672C443.81 244.672 446.797 244.971 449.41 245.568C452.023 246.165 454.226 247.173 456.018 248.592C457.885 249.936 459.266 251.765 460.162 254.08C461.133 256.395 461.618 259.269 461.618 262.704C461.618 266.437 460.909 269.387 459.49 271.552C458.071 273.792 456.167 275.509 453.778 276.704C451.389 277.899 448.626 278.645 445.49 278.944C442.429 279.317 439.181 279.504 435.746 279.504C434.327 279.504 432.573 279.429 430.482 279.28C428.466 279.205 426.413 279.056 424.322 278.832C422.231 278.683 420.253 278.496 418.386 278.272C416.519 278.048 415.063 277.824 414.018 277.6V265.504C415.437 265.728 417.042 265.952 418.834 266.176C420.701 266.475 422.642 266.699 424.658 266.848C426.674 266.997 428.69 267.109 430.706 267.184C432.722 267.333 434.626 267.408 436.418 267.408C440.226 267.408 442.802 266.997 444.146 266.176C445.565 265.355 446.274 264.085 446.274 262.368C446.274 260.949 445.826 259.755 444.93 258.784C444.109 257.813 442.279 257.328 439.442 257.328C438.397 257.328 436.941 257.365 435.074 257.44C433.282 257.515 431.378 257.627 429.362 257.776C427.421 257.851 425.517 257.963 423.65 258.112C421.783 258.261 420.29 258.411 419.17 258.56C418.05 257.515 416.893 255.909 415.698 253.744C414.503 251.504 413.906 248.891 413.906 245.904C413.906 242.021 414.877 238.773 416.818 236.16C414.877 234.517 413.421 232.464 412.45 230C411.554 227.461 411.106 224.325 411.106 220.592C411.106 216.261 411.853 212.827 413.346 210.288C414.839 207.675 416.818 205.696 419.282 204.352C421.746 202.933 424.509 202.037 427.57 201.664C430.706 201.216 433.879 200.992 437.09 200.992C440.823 200.992 444.071 201.44 446.834 202.336L465.202 201.552V212.976L458.034 212.528C459.079 215.216 459.602 218.203 459.602 221.488ZM444.706 220.592C444.706 217.755 444.071 215.813 442.802 214.768C441.533 213.648 439.255 213.088 435.97 213.088C431.938 213.088 429.25 213.723 427.906 214.992C426.637 216.261 426.002 218.427 426.002 221.488C426.002 226.341 428.765 228.768 434.29 228.768C435.933 228.768 437.389 228.693 438.658 228.544C440.002 228.32 441.122 227.909 442.018 227.312C442.914 226.715 443.586 225.893 444.034 224.848C444.482 223.728 444.706 222.309 444.706 220.592ZM483.665 235.488C483.889 239.595 484.636 242.432 485.905 244C487.249 245.493 489.601 246.24 492.961 246.24C496.097 246.24 499.047 246.053 501.809 245.68C504.647 245.307 506.887 244.933 508.529 244.56V257.104C507.633 257.328 506.513 257.589 505.169 257.888C503.825 258.112 502.407 258.299 500.913 258.448C499.42 258.597 497.964 258.709 496.545 258.784C495.201 258.933 494.007 259.008 492.961 259.008C488.929 259.008 485.383 258.672 482.321 258C479.26 257.328 476.684 255.947 474.593 253.856C472.577 251.765 471.047 248.853 470.001 245.12C469.031 241.312 468.545 236.272 468.545 230C468.545 224.848 469.031 220.443 470.001 216.784C471.047 213.051 472.54 210.027 474.481 207.712C476.497 205.397 478.924 203.717 481.761 202.672C484.599 201.552 487.847 200.992 491.505 200.992C495.761 200.992 499.233 201.552 501.921 202.672C504.684 203.792 506.849 205.435 508.417 207.6C509.985 209.691 511.068 212.304 511.665 215.44C512.337 218.576 512.673 222.123 512.673 226.08V235.488H483.665ZM491.281 213.312C488.967 213.312 487.212 214.133 486.017 215.776C484.897 217.419 484.151 220.331 483.777 224.512H498.337V221.6C498.337 218.837 497.777 216.784 496.657 215.44C495.537 214.021 493.745 213.312 491.281 213.312ZM520.542 258V202H532.638L533.646 206.368C535.364 204.725 537.342 203.419 539.582 202.448C541.822 201.477 544.324 200.992 547.086 200.992C550.969 200.992 554.068 201.44 556.382 202.336C558.772 203.232 560.601 204.613 561.87 206.48C563.214 208.347 564.11 210.661 564.558 213.424C565.006 216.187 565.23 219.472 565.23 223.28V258H550.334V222.944C550.334 219.211 549.774 216.784 548.654 215.664C547.609 214.469 546.078 213.872 544.062 213.872C541.225 213.872 539.097 214.693 537.678 216.336C536.334 217.979 535.588 219.771 535.438 221.712V258H520.542ZM588.237 235.488C588.461 239.595 589.207 242.432 590.477 244C591.821 245.493 594.173 246.24 597.533 246.24C600.669 246.24 603.618 246.053 606.381 245.68C609.218 245.307 611.458 244.933 613.101 244.56V257.104C612.205 257.328 611.085 257.589 609.741 257.888C608.397 258.112 606.978 258.299 605.485 258.448C603.991 258.597 602.535 258.709 601.117 258.784C599.773 258.933 598.578 259.008 597.533 259.008C593.501 259.008 589.954 258.672 586.893 258C583.831 257.328 581.255 255.947 579.165 253.856C577.149 251.765 575.618 248.853 574.573 245.12C573.602 241.312 573.117 236.272 573.117 230C573.117 224.848 573.602 220.443 574.573 216.784C575.618 213.051 577.111 210.027 579.053 207.712C581.069 205.397 583.495 203.717 586.333 202.672C589.17 201.552 592.418 200.992 596.077 200.992C600.333 200.992 603.805 201.552 606.493 202.672C609.255 203.792 611.421 205.435 612.989 207.6C614.557 209.691 615.639 212.304 616.237 215.44C616.909 218.576 617.245 222.123 617.245 226.08V235.488H588.237ZM595.853 213.312C593.538 213.312 591.783 214.133 590.589 215.776C589.469 217.419 588.722 220.331 588.349 224.512H602.909V221.6C602.909 218.837 602.349 216.784 601.229 215.44C600.109 214.021 598.317 213.312 595.853 213.312ZM625.113 258V202H637.209L638.329 207.04C639.823 205.248 641.54 203.792 643.481 202.672C645.423 201.552 647.588 200.992 649.977 200.992C651.695 200.992 653.412 201.179 655.129 201.552V216.336C654.159 216.112 653.225 215.963 652.329 215.888C651.508 215.739 650.575 215.664 649.529 215.664C647.663 215.664 646.132 216.149 644.937 217.12C643.743 218.016 642.772 219.248 642.025 220.816C641.279 222.309 640.756 224.027 640.457 225.968C640.159 227.909 640.009 229.888 640.009 231.904V258H625.113ZM698.883 258C697.39 258 695.672 257.701 693.731 257.104C691.79 256.507 690.296 255.275 689.251 253.408C687.832 255.125 685.966 256.507 683.651 257.552C681.336 258.523 678.275 259.008 674.467 259.008C672.003 259.008 669.726 258.709 667.635 258.112C665.544 257.515 663.715 256.544 662.147 255.2C660.654 253.781 659.459 251.952 658.563 249.712C657.742 247.397 657.331 244.523 657.331 241.088C657.331 234.293 659.347 229.477 663.379 226.64C667.486 223.803 673.384 222.384 681.075 222.384H686.115V220.032C686.115 217.867 685.555 216.224 684.435 215.104C683.39 213.909 681.448 213.312 678.611 213.312C675.4 213.312 672.414 213.573 669.651 214.096C666.963 214.544 664.2 215.179 661.363 216V203.232C662.408 202.933 663.64 202.672 665.059 202.448C666.478 202.149 667.934 201.888 669.427 201.664C670.995 201.44 672.563 201.291 674.131 201.216C675.774 201.067 677.267 200.992 678.611 200.992C683.39 200.992 687.235 201.403 690.147 202.224C693.059 202.971 695.299 204.165 696.867 205.808C698.51 207.451 699.592 209.541 700.115 212.08C700.712 214.619 701.011 217.605 701.011 221.04V243.216C701.011 244.336 701.31 245.232 701.907 245.904C702.504 246.501 703.662 246.8 705.379 246.8V258H698.883ZM678.723 246.464C680.291 246.464 681.523 246.203 682.419 245.68C683.39 245.083 684.136 244.373 684.659 243.552C685.256 242.731 685.63 241.872 685.779 240.976C686.003 240.005 686.115 239.147 686.115 238.4V233.36H680.515C678.126 233.36 676.184 233.883 674.691 234.928C673.198 235.973 672.451 237.765 672.451 240.304C672.451 242.021 672.899 243.477 673.795 244.672C674.766 245.867 676.408 246.464 678.723 246.464ZM729.211 214.88V241.2C729.211 242.992 729.547 244.299 730.219 245.12C730.966 245.867 732.198 246.24 733.915 246.24C735.11 246.24 736.379 246.128 737.723 245.904C739.067 245.68 740.15 245.456 740.971 245.232V257.664C740.598 257.739 739.963 257.851 739.067 258C738.171 258.224 737.163 258.373 736.043 258.448C734.923 258.597 733.766 258.709 732.571 258.784C731.377 258.933 730.257 259.008 729.211 259.008C726.075 259.008 723.537 258.523 721.595 257.552C719.654 256.507 718.123 255.163 717.003 253.52C715.958 251.803 715.249 249.861 714.875 247.696C714.502 245.456 714.315 243.104 714.315 240.64V214.88H707.035V202H714.315V188.56H729.211V202H740.411V214.88H729.211ZM793.013 228.88C793.013 234.779 792.49 239.669 791.445 243.552C790.399 247.36 788.869 250.421 786.853 252.736C784.837 254.976 782.298 256.544 779.237 257.44C776.25 258.336 772.778 258.784 768.821 258.784C764.863 258.784 761.391 258.336 758.405 257.44C755.418 256.544 752.917 254.976 750.901 252.736C748.885 250.421 747.354 247.36 746.309 243.552C745.338 239.669 744.853 234.779 744.853 228.88C744.853 219.323 746.719 212.341 750.453 207.936C754.261 203.456 760.383 201.216 768.821 201.216C777.258 201.216 783.381 203.456 787.189 207.936C791.071 212.341 793.013 219.323 793.013 228.88ZM777.781 230.56C777.781 227.275 777.631 224.549 777.333 222.384C777.034 220.144 776.511 218.352 775.765 217.008C775.093 215.664 774.197 214.731 773.077 214.208C771.957 213.611 770.538 213.312 768.821 213.312C767.178 213.312 765.797 213.611 764.677 214.208C763.557 214.731 762.661 215.664 761.989 217.008C761.317 218.352 760.831 220.144 760.533 222.384C760.234 224.549 760.085 227.275 760.085 230.56C760.085 233.696 760.197 236.309 760.421 238.4C760.719 240.416 761.205 242.059 761.877 243.328C762.549 244.523 763.445 245.381 764.565 245.904C765.685 246.427 767.103 246.688 768.821 246.688C770.538 246.688 771.957 246.427 773.077 245.904C774.271 245.381 775.205 244.523 775.877 243.328C776.549 242.059 777.034 240.416 777.333 238.4C777.631 236.309 777.781 233.696 777.781 230.56ZM801.443 258V202H813.539L814.659 207.04C816.153 205.248 817.87 203.792 819.811 202.672C821.753 201.552 823.918 200.992 826.307 200.992C828.025 200.992 829.742 201.179 831.459 201.552V216.336C830.489 216.112 829.555 215.963 828.659 215.888C827.838 215.739 826.905 215.664 825.859 215.664C823.993 215.664 822.462 216.149 821.267 217.12C820.073 218.016 819.102 219.248 818.355 220.816C817.609 222.309 817.086 224.027 816.787 225.968C816.489 227.909 816.339 229.888 816.339 231.904V258H801.443Z" fill="url(#paint2_linear_2_47)"/>
<path d="M35.5988 0C37.3612 6.67406 43.0689 12.6307 49.2361 18.8112L50.5444 20.1195C60.2912 29.8646 71.1996 40.9348 71.1996 57.4526C71.1586 66.8722 67.3898 75.892 60.718 82.5382C54.0462 89.1844 45.0147 92.9158 35.5998 92.9158C26.1849 92.9158 17.1534 89.1844 10.4816 82.5382C3.80979 75.892 0.0410195 66.8722 0 57.4526C0 41.2674 10.4733 30.3135 20.0619 20.7118L20.6539 20.1195L20.9485 19.8247C27.4935 13.2791 33.7397 7.03849 35.5988 0ZM279.098 53.2829C281.255 64.9312 274.187 76.3057 262.79 79.5221C252.035 82.1427 247.189 73.7858 246.308 71.5911C246.216 71.3626 246.132 71.1144 245.757 71.1192C245.367 71.1239 245.323 71.5262 245.319 71.5837V71.5904L245.316 77.4254L245.313 77.422V93H233.658V57.4573C233.659 45.6109 242.683 35.7164 254.474 34.6326C266.266 33.5495 276.94 41.6339 279.098 53.2829H279.098ZM35.5981 53.4235C35.5981 53.4235 33.3633 55.8549 31.0224 58.456L30.6947 58.8197C29.0032 60.7027 27.309 62.6196 26.4082 63.7216C24.4811 65.9811 23.4019 68.8422 23.3564 71.8122C23.3563 73.4209 23.6729 75.014 24.2882 76.5003C24.9034 77.9866 25.8053 79.3371 26.9422 80.4747C28.0792 81.6123 29.429 82.5147 30.9145 83.1304C32.4 83.7461 33.9922 84.0629 35.6002 84.0629C42.362 84.0629 47.844 78.5789 47.844 71.8129C47.8702 68.8182 46.7744 65.9224 44.7725 63.696C43.865 62.6838 42.2451 60.8697 40.6151 59.0455L40.2894 58.6804L35.5981 53.4235ZM308.912 34.634C320.585 35.7063 329.545 45.4141 329.724 57.103L329.727 57.4573V78.7594H318.073L318.067 71.5911C318.067 71.5911 318.05 71.1246 317.629 71.1178C317.253 71.1144 317.171 71.3632 317.079 71.5911C316.198 73.7845 311.352 82.1427 300.597 79.5207C289.201 76.3044 282.133 64.9299 284.29 53.2816C286.448 41.6339 297.122 33.5495 308.913 34.634H308.912ZM229.541 35.3594L229.537 57.1348C229.537 69.7094 221.337 79.9 208.77 79.9C196.326 79.9 188.283 69.9123 188.123 57.5114L188.121 57.1348L188.124 35.3804H199.726V57.1348C199.726 63.4978 202.478 68.6459 208.841 68.6459C215.124 68.6459 217.862 63.6209 217.927 57.364L217.928 57.1341L217.909 35.3594H229.541ZM346 22.0911V78.7777H334.425V22.0911H346ZM178.663 34.8862C180.211 35.2373 181.708 35.7856 183.116 36.5177L183.498 36.7218V49.9124L183.49 49.9043C183.425 49.8422 183.358 49.7822 183.289 49.7245L183.196 49.6474C182.446 49.0368 180.273 47.5108 176.305 46.571C166.418 44.2323 161.268 53.2079 161.167 55.2457L161.165 55.3052V78.7398H149.542V35.446H159.911L161.149 43.0321C161.149 43.0321 161.19 43.4263 161.556 43.4338C161.997 43.4453 162.002 43.2931 162.13 43.0321C162.392 42.5007 168.685 32.5826 178.663 34.8862ZM114.098 22.0688C131.275 22.0688 144.302 25.2229 144.302 50.3681C144.302 75.2733 130.503 78.6695 113.133 78.6695H99.9115V22.0681L114.098 22.0688ZM306.807 45.857C304.513 45.8567 302.271 46.5371 300.363 47.8121C298.456 49.0871 296.969 50.8994 296.091 53.0198C295.213 55.1403 294.984 57.4736 295.431 59.7246C295.879 61.9757 296.983 64.0434 298.606 65.6662C300.228 67.2891 302.295 68.3941 304.545 68.8417C306.795 69.2892 309.127 69.0591 311.246 68.1805C313.365 67.3018 315.176 65.8142 316.45 63.9055C317.725 61.9969 318.404 59.7532 318.404 57.458C318.402 51.0517 313.211 45.8584 306.807 45.857ZM256.579 45.857C250.176 45.859 244.986 51.0517 244.984 57.458C244.983 59.7532 245.663 61.997 246.937 63.9056C248.211 65.8142 250.022 67.3019 252.142 68.1805C254.261 69.0592 256.593 69.2892 258.843 68.8416C261.093 68.394 263.16 67.2889 264.782 65.666C266.404 64.0431 267.509 61.9753 267.956 59.7242C268.404 57.4731 268.174 55.1398 267.296 53.0194C266.418 50.899 264.931 49.0867 263.023 47.8118C261.116 46.5369 258.873 45.8566 256.579 45.857ZM116.608 31.8801H111.615V68.848L116.415 68.9711C126.258 68.9711 132.596 68.0759 132.596 50.3675C132.596 33.5576 127.112 31.9112 116.608 31.8801ZM35.5988 20.4921L35.5948 20.4961L35.4947 20.5962L35.1258 20.9647L34.1844 21.9059L33.2336 22.8572L31.5752 24.5164L30.6872 25.4048L30.0067 26.0857L29.8803 26.2121L29.2086 26.8855L29.0235 27.0701L28.9613 27.133C27.5989 28.4893 24.8552 31.0241 28.1591 34.5954C29.8756 36.4514 34.9494 41.7908 40.2252 47.4182L40.9294 48.17C47.156 54.8198 53.4671 61.6723 54.7058 63.506C55.7702 65.082 55.9236 65.8203 57.3644 65.7683C58.1719 65.7385 58.7707 64.7744 59.0342 64.1976C60.2709 61.4931 62.3672 53.2971 56.2838 43.8259C52.0872 37.2898 43.8339 28.6644 39.1196 23.9444L38.7189 23.5441C36.8267 21.6577 35.5988 20.4921 35.5988 20.4921ZM19.8376 36.993C4.89198 51.7853 12.948 65.679 15.1307 65.7521C15.3565 65.7602 15.7335 65.7872 15.9917 65.0671C17.2419 61.5776 27.3009 51.4851 29.6607 49.0632C29.7538 48.9886 29.83 48.8951 29.8844 48.7889C29.9388 48.6827 29.9701 48.5662 29.9763 48.4471C29.9825 48.3279 29.9634 48.2088 29.9203 48.0975C29.8772 47.9863 29.8111 47.8854 29.7263 47.8015L19.8376 36.993Z" fill="#009DDE"/>
<defs>
<radialGradient id="paint0_radial_2_47" cx="0" cy="0" r="1" gradientUnits="userSpaceOnUse" gradientTransform="translate(673.202 59.7641) rotate(-33.6633) scale(80.5306 80.403)">
<stop stop-color="#59F4D3"/>
<stop offset="0.740235" stop-color="#5038EA"/>
</radialGradient>
<radialGradient id="paint1_radial_2_47" cx="0" cy="0" r="1" gradientUnits="userSpaceOnUse" gradientTransform="translate(718.026 37.2359) rotate(146.337) scale(80.5306 120.605)">
<stop stop-color="#B164FF"/>
<stop offset="0.740235" stop-color="#FF62AF"/>
</radialGradient>
<linearGradient id="paint2_linear_2_47" x1="566.835" y1="-64" x2="127.509" y2="310.565" gradientUnits="userSpaceOnUse">
<stop stop-color="#FD6F8E"/>
<stop offset="0.114583" stop-color="#7A5AF8"/>
<stop offset="0.239583" stop-color="#1570EF"/>
<stop offset="0.380208" stop-color="#065986"/>
<stop offset="0.505208"/>
<stop offset="0.53125"/>
<stop offset="0.604167"/>
<stop offset="0.6875" stop-color="#065986"/>
<stop offset="0.776042" stop-color="#1570EF"/>
<stop offset="0.880208" stop-color="#7A5AF8"/>
<stop offset="1" stop-color="#FD6F8E"/>
</linearGradient>
<clipPath id="clip0_2_47">
<rect width="89.3684" height="89" fill="white" transform="translate(651 4)"/>
</clipPath>
</defs>
</svg>
